# xmcd
#
# Track frame offsets:
#	182
#	12210
#	23610
#	38325
#	52785
#	68635
#	84335
#	99757
#	111820
#	123755
#	142560
#	160450
#	175125
#	191895
#	204912
#	217585
#	232167
#	243622
#	256080
#	272560
#	290137
#	306250
#
# Disc length: 4246
#
# Revision: 1
# Processed by: cddbd v1.5.1PL0 Copyright (c) Steve Scherf et al.
# Submitted via: OrangeCD 4.1
# Normalized: r0:DSETVAR1,TDELIM( - )
#
DISCID=17109416
DTITLE=Various Artist - Heart Of The Land
DYEAR=1900
DGENRE=
TTITLE0=Alan Jackson - Little Bitty
TTITLE1=BR5-49 - Cherokee Boogie
TTITLE2=Johnny Cash - I've Been Everywhere
TTITLE3=Mindy McCready - Guys Do It All The Time
TTITLE4=Carol Young - Only You
TTITLE5=Brooks and Dunn - My Maria
TTITLE6=The Wheel - Saw You Runnin'
TTITLE7=Shanley Del - Funnel Of Love
TTITLE8=Alan Jackson - Buicks To The Moon
TTITLE9=Brooks and Dunn - I Am That Man
TTITLE10=Michelle Wright - Love Has No Pride
TTITLE11=Martina Mcbride - Safe In The Arms Of Love
TTITLE12=The Wheel - Man With A Hammer
TTITLE13=Carol Young - Rocks Or Roses
TTITLE14=Clint Black - Summer's Comin'
TTITLE15=BR5-49 - Even If It's Wrong
TTITLE16=Johnny Cash - Country Boy
TTITLE17=Lorrie Morgan - What Part Of No
TTITLE18=Alan Jackson - Mercury Blues
TTITLE19=Michelle Wright - We've Tried Everything Else
TTITLE20=Brooks and Dunn - A Man This Lonely
TTITLE21=Shanley Del - Never A Good Goodbye
EXTD=
EXTT0=
EXTT1=
EXTT2=
EXTT3=
EXTT4=
EXTT5=
EXTT6=
EXTT7=
EXTT8=
EXTT9=
EXTT10=
EXTT11=
EXTT12=
EXTT13=
EXTT14=
EXTT15=
EXTT16=
EXTT17=
EXTT18=
EXTT19=
EXTT20=
EXTT21=
PLAYORDER=
